<svg width="24" height="24" viewBox="0 0 24 24" fill="none" xmlns="http://www.w3.org/2000/svg">
<path d="M13.9238 3.01564C13.8078 3.00061 13.688 3.00145 13.5693 3.01857C13.3321 3.05281 13.0993 3.15353 12.9092 3.32619C12.9062 3.32877 12.9033 3.33137 12.9004 3.334L8.66992 7.29689C8.53059 7.42746 8.34794 7.50002 8.15723 7.50002H4.25C3.01625 7.50002 2 8.51627 2 9.75002V14.25C2 15.4838 3.01625 16.5 4.25 16.5H8.15723C8.34794 16.5 8.53059 16.5726 8.66992 16.7031L12.9004 20.666C12.9033 20.6687 12.9062 20.6713 12.9092 20.6738C13.2894 21.0192 13.8413 21.076 14.2559 20.8926C14.6704 20.7092 15 20.2627 15 19.749V4.25099C15 3.73733 14.6705 3.29088 14.2559 3.10744C14.1522 3.06158 14.0399 3.03067 13.9238 3.01564ZM13.5 4.82716V19.1729L9.69531 15.6084C9.27865 15.218 8.72852 15 8.15723 15H4.25C3.82675 15 3.5 14.6733 3.5 14.25V9.75002C3.5 9.32677 3.82675 9.00002 4.25 9.00002H8.15723C8.72852 9.00002 9.27865 8.78205 9.69531 8.39162L13.5 4.82716ZM17.5059 8.12892C17.3758 8.12715 17.2475 8.15923 17.1336 8.22201C17.0197 8.28479 16.9241 8.37612 16.8561 8.48702C16.7881 8.59792 16.7502 8.72459 16.746 8.85459C16.7417 8.98459 16.7714 9.11346 16.832 9.22853C17.2573 10.0639 17.5 11.0012 17.5 12C17.5 12.9988 17.2573 13.9362 16.832 14.7715C16.7835 14.8596 16.7531 14.9565 16.7428 15.0565C16.7324 15.1566 16.7423 15.2577 16.7718 15.3538C16.8013 15.45 16.8498 15.5392 16.9145 15.6162C16.9792 15.6932 17.0587 15.7564 17.1483 15.8021C17.2379 15.8477 17.3358 15.8749 17.4361 15.882C17.5365 15.889 17.6372 15.8758 17.7323 15.8432C17.8274 15.8106 17.915 15.7591 17.9899 15.6919C18.0647 15.6248 18.1253 15.5432 18.168 15.4522C18.6947 14.4175 19 13.2432 19 12C19 10.7568 18.6947 9.58254 18.168 8.54787C18.1069 8.42379 18.0128 8.319 17.896 8.24507C17.7791 8.17114 17.6441 8.13094 17.5059 8.12892Z" fill="#9CA3AF"/>
</svg>
